<svg version="1.1" id="Layer_1" xmlns="http://www.w3.org/2000/svg" xmlns:xlink="http://www.w3.org/1999/xlink" x="0px" y="0px"
	 width="100%" viewBox="0 0 160 192" enable-background="new 0 0 160 192" xml:space="preserve">
<path fill="#20231F" opacity="1.000000" stroke="none" 
	d="
M82.328369,167.244843 
	C52.472794,162.933090 34.865391,143.382980 20.669174,119.644096 
	C14.007745,108.504875 14.339200,108.392975 21.444426,97.275894 
	C30.231115,83.527962 40.506622,71.204353 54.234798,62.076908 
	C88.945129,38.999069 137.129929,56.557228 147.689163,96.131866 
	C154.789398,122.742630 139.651443,151.210663 112.561203,162.435028 
	C102.984383,166.403015 93.081963,167.929749 82.328369,167.244843 
M51.792034,90.295151 
	C47.178589,95.116104 43.129330,100.379341 39.283630,105.828758 
	C37.581207,108.241104 37.621864,110.136894 39.290165,112.552063 
	C44.221024,119.690361 49.460564,126.556686 55.695122,132.612625 
	C65.860527,142.486832 77.339775,148.791534 92.228874,147.785355 
	C106.718468,146.806168 122.816109,136.089508 127.549080,122.870354 
	C132.438431,109.214462 130.237473,96.649757 120.625832,85.637283 
	C110.235252,73.732330 97.024742,69.267494 81.596909,71.863716 
	C69.540504,73.892593 60.587234,81.398781 51.792034,90.295151 
z"/>
<path fill="#20231F" opacity="1.000000" stroke="none" 
	d="
M109.844711,123.609924 
	C101.459160,134.369049 90.623940,138.131958 79.890541,134.255371 
	C69.020889,130.329590 62.226349,120.091560 62.671188,108.309212 
	C63.167984,95.150734 74.364326,84.428024 87.825363,84.219139 
	C101.558914,84.006035 112.581596,94.059769 113.459808,107.530952 
	C113.824783,113.129601 113.111732,118.458099 109.844711,123.609924 
z"/>
</svg>