<svg version="1.1" id="Layer_1" xmlns="http://www.w3.org/2000/svg" xmlns:xlink="http://www.w3.org/1999/xlink" x="0px" y="0px"
	 width="100%" viewBox="0 0 496 512" enable-background="new 0 0 496 512" xml:space="preserve">
<path fill="#f8f5f0" opacity="1.000000" stroke="none" 
	d="
M135.994476,300.339478 
	C116.388206,300.350403 100.915909,292.131836 87.624062,279.039825 
	C77.437279,269.006134 69.680000,257.239929 63.125603,244.612396 
	C62.235657,242.897842 61.702744,241.387665 62.788029,239.497070 
	C72.570648,222.455643 83.920158,206.698288 100.500687,195.583435 
	C125.801445,178.622925 158.687653,181.842804 179.656815,203.036148 
	C209.377396,233.074448 197.914124,281.162415 157.388474,296.295990 
	C150.665771,298.806458 143.748749,300.560181 135.994476,300.339478 
M108.762787,214.263321 
	C100.564270,220.665192 93.843941,228.420837 87.651642,236.737228 
	C84.894318,240.440353 84.445259,243.358063 87.356773,247.327103 
	C93.884941,256.226471 100.907326,264.591003 109.542336,271.520874 
	C120.411720,280.243866 132.709930,282.741211 146.126831,279.528473 
	C162.178207,275.684998 175.031479,262.304382 176.634094,248.135895 
	C178.572800,230.996201 170.041061,215.627823 153.794922,208.124695 
	C137.926651,200.796082 123.059799,203.477310 108.762787,214.263321 
z"/>
<path fill="#f8f5f0" opacity="1.000000" stroke="none" 
	d="
M222.652405,275.951294 
	C222.652481,250.466324 222.646469,225.475464 222.657013,200.484604 
	C222.659851,193.740417 222.687729,193.567139 229.622742,193.760239 
	C240.755890,194.070206 251.895889,193.013809 263.032928,194.549088 
	C277.348694,196.522583 286.983063,204.696396 289.159790,217.417114 
	C291.510834,231.156662 285.710114,242.783035 273.230896,249.377136 
	C272.366852,249.833694 271.557800,250.394363 270.206024,251.224014 
	C276.766327,262.702057 285.188507,272.759705 292.789764,284.936768 
	C285.884644,284.936768 280.007721,285.066437 274.142853,284.857605 
	C272.388550,284.795105 271.634460,282.820984 270.716431,281.453705 
	C265.424744,273.572723 260.189911,265.653290 254.856796,257.800568 
	C252.751480,254.700607 245.096176,252.931961 241.838699,254.591476 
	C239.873474,255.592651 240.385437,257.418243 240.372025,258.992828 
	C240.311005,266.156372 240.217331,273.323395 240.381561,280.483521 
	C240.460754,283.936554 239.152420,285.418945 235.719421,285.158875 
	C234.228867,285.045959 232.722031,285.148895 231.222595,285.151459 
	C222.663803,285.166046 222.663803,285.165802 222.652405,275.951294 
M271.633209,221.822922 
	C271.047974,215.145203 266.671906,212.050461 260.796051,210.416275 
	C255.257507,208.875916 249.578690,209.403259 243.939499,209.342957 
	C241.481186,209.316666 240.260330,210.353928 240.327713,212.927094 
	C240.414749,216.250839 240.342453,219.578705 240.343353,222.904785 
	C240.348221,240.979324 240.520798,241.119980 258.632324,237.852722 
	C268.012512,236.160583 271.326080,232.286942 271.633209,221.822922 
z"/>
<path fill="#f8f5f0" opacity="1.000000" stroke="none" 
	d="
M325.871887,235.066559 
	C336.909393,217.735245 353.866302,213.831253 369.734863,224.877701 
	C371.374573,223.933350 370.134064,220.393158 373.409393,220.664276 
	C377.690948,221.018661 382.086914,219.952698 386.275177,221.283096 
	C387.645447,221.718399 387.318695,223.595993 387.319580,224.892822 
	C387.338715,253.193909 387.308350,281.495056 387.372314,309.796021 
	C387.379150,312.817322 386.055786,313.811432 383.228668,314.064575 
	C370.910431,315.167664 370.678253,315.010712 370.678192,302.751526 
	C370.678162,294.799835 370.678192,286.848114 370.678192,278.169556 
	C363.475037,284.447174 355.900909,287.527740 346.900543,285.749023 
	C333.280182,283.057312 322.426788,270.518158 321.665405,256.605682 
	C321.260071,249.199203 321.707764,241.961838 325.871887,235.066559 
M367.210999,265.646820 
	C371.540161,260.775299 370.855103,254.824188 370.683014,249.035400 
	C370.444092,241.000824 364.970581,234.997147 357.327728,234.156036 
	C348.657776,233.201874 342.396606,237.481461 340.033142,245.723236 
	C339.228699,248.528381 339.284576,251.324905 339.380951,254.128952 
	C339.633240,261.470337 342.374969,267.439789 349.499298,270.483765 
	C356.233124,273.360870 361.778992,270.838318 367.210999,265.646820 
z"/>
<path fill="#f8f5f0" opacity="1.000000" stroke="none" 
	d="
M403.032837,229.027985 
	C422.834473,211.606140 452.139008,218.705872 459.206299,242.317871 
	C463.941345,258.137787 457.341705,275.112732 443.663147,282.296539 
	C429.371460,289.802338 411.543243,286.514374 401.357544,274.494324 
	C391.117859,262.410675 391.022064,243.917908 401.140869,231.165695 
	C401.657593,230.514450 402.236603,229.912659 403.032837,229.027985 
M442.734711,251.642136 
	C442.679474,250.314774 442.741730,248.970123 442.549408,247.662933 
	C441.520721,240.671509 436.052338,235.034363 429.671722,234.303406 
	C421.903564,233.413467 415.917297,236.588943 413.214081,243.436157 
	C410.611725,250.028015 410.508057,256.800629 413.563354,263.261566 
	C415.882629,268.166016 419.664764,271.371918 425.495117,271.748535 
	C431.881836,272.161102 436.807220,270.061340 440.256775,264.528564 
	C442.583038,260.797394 442.867462,256.737854 442.734711,251.642136 
z"/>
<path fill="#f8f5f0" opacity="1.000000" stroke="none" 
	d="
M315.348694,234.008972 
	C315.348083,249.501541 315.213409,264.497101 315.430450,279.487610 
	C315.493011,283.809723 314.232391,285.329559 309.776733,285.225800 
	C296.822296,284.924133 298.754944,286.494324 298.679504,273.976227 
	C298.583099,257.983612 298.771667,241.988602 298.582184,225.997650 
	C298.533081,221.853683 299.901917,220.478699 304.019623,220.588531 
	C317.406281,220.945496 315.079498,219.061981 315.346344,231.510910 
	C315.360626,232.176987 315.348389,232.843643 315.348694,234.008972 
z"/>
<path fill="#f8f5f0" opacity="1.000000" stroke="none" 
	d="
M297.196198,199.831146 
	C299.626343,194.578735 303.511444,192.635620 308.714478,193.423874 
	C313.734741,194.184418 315.986847,197.743790 316.880463,202.309753 
	C317.896637,207.501953 314.019867,212.678177 308.692719,213.486969 
	C302.718658,214.393997 297.526672,211.057297 296.809570,205.648880 
	C296.574341,203.874619 296.934113,202.021469 297.196198,199.831146 
z"/>
<path fill="#f8f5f0" opacity="1.000000" stroke="none" 
	d="
M150.408997,263.537354 
	C140.537170,270.028137 130.693207,270.474518 121.074379,264.220764 
	C112.291588,258.510590 108.741241,249.683411 109.923027,239.629608 
	C111.169189,229.028030 117.294159,221.632675 127.789803,218.368988 
	C139.063568,214.863358 151.045700,219.449631 157.249069,229.618637 
	C162.966110,238.990417 161.550446,252.192261 153.943817,260.204681 
	C152.913422,261.290039 151.777878,262.275574 150.408997,263.537354 
z"/>
</svg>